<svg fill="none" xmlns="http://www.w3.org/2000/svg" viewBox="0 0 68 90">
  <path fill-rule="evenodd" clip-rule="evenodd" d="M65.647 8.507c4.76 8.152 2.056 18.641-6.042 23.432l-5.635 3.338 4.002 1.813c5.792 2.626 9.653 8.293 9.997 14.687.344 6.385-2.884 12.443-8.363 15.686l-34 20.111c-8.09 4.791-18.509 2.064-23.261-6.088-4.752-8.153-2.056-18.642 6.042-23.433l5.635-3.338-4.002-1.813C4.23 50.276.367 44.61.023 38.216c-.336-6.386 2.885-12.444 8.364-15.687l34-20.111c8.09-4.784 18.508-2.064 23.26 6.089z" fill="red"/>
  <path fill-rule="evenodd" clip-rule="evenodd" d="M25.793 57.897V32.103L47.678 45 25.793 57.897z" fill="#fff"/>
</svg>
