<?xml version="1.0" encoding="UTF-8" standalone="no"?>
<svg
   viewBox="0 0 42.541706 9.9177141"
   version="1.1"
   xmlns="http://www.w3.org/2000/svg"
   xmlns:svg="http://www.w3.org/2000/svg">
  <defs />
  <!-- Wordmark -->
  <g transform="translate(-4.2485965,-5.8895917)">
    <path class="wordmark"
       d="m 25.613301,6.4775917 -2.33,9.1580003 h -2.21 l -1.241,-4.81 a 10,10 0 0 1 -0.1,-0.42 44,44 0 0 1 -0.132,-0.6170003 24,24 0 0 1 -0.122,-0.633 7,7 0 0 1 -0.072,-0.473 7,7 0 0 1 -0.072,0.47 39,39 0 0 1 -0.348,1.6850003 l -1.233,4.798 h -2.205 l -2.337,-9.1580003 h 1.91 l 1.172,4.9990003 0.116,0.539 a 37,37 0 0 1 0.25,1.311 q 0.054,0.316 0.079,0.549 a 23,23 0 0 1 0.19,-1.2 q 0.06,-0.328 0.122,-0.61 0.063,-0.282 0.113,-0.458 l 1.335,-5.1300003 h 1.835 l 1.334,5.1300003 q 0.044,0.17 0.103,0.455 0.06,0.285 0.122,0.617 0.063,0.33 0.116,0.647 0.054,0.316 0.079,0.549 0.044,-0.313 0.121,-0.76 a 33,33 0 0 1 0.33,-1.64 l 1.165,-4.9980003 z" />
    <path class="wordmark"
       d="m 28.076301,8.6335917 v 7.0020003 h -1.91 V 8.6325917 Z m -0.952,-2.744 q 0.426,0 0.732,0.197 0.308,0.198 0.308,0.736 0,0.532 -0.308,0.736 a 1.3,1.3 0 0 1 -0.732,0.203 q -0.432,0 -0.737,-0.203 -0.303,-0.204 -0.303,-0.736 0,-0.538 0.303,-0.736 0.305,-0.197 0.737,-0.197" />
    <path class="wordmark"
       d="m 31.542301,15.635592 h -1.91 V 5.8895917 h 1.91 z" />
    <path class="wordmark"
       d="m 35.007301,5.8895917 v 2.267 q 0,0.394 -0.023,0.784 a 8,8 0 0 1 -0.052,0.6 h 0.075 q 0.276,-0.432 0.752,-0.735 0.475,-0.305 1.234,-0.305 1.176,0 1.91,0.921 0.733,0.9210003 0.733,2.7000003 0,1.197 -0.339,2.007 -0.337,0.81 -0.946,1.222 -0.607,0.41 -1.409,0.41 -0.771,0 -1.215,-0.275 a 2.8,2.8 0 0 1 -0.72,-0.62 h -0.132 l -0.32,0.77 h -1.458 V 5.8895917 Z m 1.372,4.1400003 q -0.502,0 -0.796,0.207 -0.294,0.206 -0.43,0.62 -0.134,0.413 -0.146,1.045 v 0.207 q 0,1.02 0.3,1.563 0.3,0.543 1.097,0.542 0.588,0 0.936,-0.545 0.348,-0.545 0.348,-1.572 0,-1.027 -0.35,-1.546 -0.352,-0.52 -0.96,-0.52" />
    <path class="wordmark"
       d="m 43.653301,8.5005917 q 0.97,0 1.672,0.374 0.7,0.372 1.083,1.08 0.381,0.7080003 0.382,1.7290003 v 0.927 h -4.516 q 0.031,0.808 0.486,1.268 0.455,0.46 1.262,0.46 0.67,0 1.227,-0.138 0.558,-0.138 1.147,-0.413 v 1.478 a 4.5,4.5 0 0 1 -1.087,0.376 q -0.567,0.119 -1.375,0.119 -1.052,0 -1.864,-0.388 a 2.9,2.9 0 0 1 -1.27,-1.184 q -0.461,-0.796 -0.46,-2.005 0,-1.227 0.415,-2.044 0.417,-0.8180003 1.162,-1.2280003 0.746,-0.41 1.736,-0.41 m 0.011,1.36 q -0.555,0 -0.923,0.3580003 -0.366,0.356 -0.423,1.12 h 2.68 a 1.9,1.9 0 0 0 -0.153,-0.758 1.2,1.2 0 0 0 -0.439,-0.526 q -0.29,-0.1950003 -0.742,-0.1940003" />
  </g>

<!-- Sails (with adjusted spacing) -->
<g transform="translate(-7.7,-5.8895917)">
  <path class="sails"
     d="m 10.606,6.495 v 9.408 C 9.6,15.917 8.666,15.733 8.026,14.665 7.851,14.373 7.747,13.949 7.739,13.581 7.706,12.145 7.722,10.706 7.733,9.268 c 0,-0.143 0.06,-0.343 0.147,-0.421 0.866,-0.78 1.743,-1.538 2.618,-2.302 0.023,-0.02 0.055,-0.026 0.108,-0.05" />
  <path class="sails"
     d="m 13.502,9.12 v 6.783 c -0.725,0.01 -1.399,-0.122 -1.86,-0.892 a 1.7,1.7 0 0 1 -0.207,-0.782 c -0.023,-1.035 -0.012,-2.072 -0.005,-3.11 0,-0.102 0.044,-0.246 0.107,-0.303 0.624,-0.561 1.256,-1.109 1.887,-1.659 0.017,-0.014 0.04,-0.019 0.078,-0.036" />
  <path class="sails"
     d="m 15.403,12.012 v 3.891 C 14.987,15.91 14.6,15.833 14.336,15.391 a 1,1 0 0 1 -0.12,-0.448 c -0.012,-0.594 -0.006,-1.189 -0.002,-1.784 0,-0.06 0.026,-0.142 0.061,-0.175 q 0.54,-0.48 1.083,-0.951 c 0.01,-0.009 0.023,-0.011 0.045,-0.021" />
</g>
</svg>
